<?xml version="1.0" encoding="utf-8"?>
<!-- Generator: Adobe Illustrator 18.0.0, SVG Export Plug-In . SVG Version: 6.00 Build 0)  -->
<!DOCTYPE svg PUBLIC "-//W3C//DTD SVG 1.1//EN" "http://www.w3.org/Graphics/SVG/1.1/DTD/svg11.dtd">
<svg version="1.1" id="Ebene_1" xmlns="http://www.w3.org/2000/svg" xmlns:xlink="http://www.w3.org/1999/xlink" x="0px" y="0px"
	 viewBox="0 0 367.95 118.85" style="enable-background:new 0 0 367.95 118.85;" xml:space="preserve">
<g id="JrbNGi.tif">
	<g>
		<path style="fill:#FFFFFF;" d="M131.88,55.3c1.86-1.89,4.35-2.18,7.04-2.51c3.04-0.38,6.15-1.34,8.89-2.72
			c3.65-1.85,7.03-4.27,10.43-6.59c1.96-1.34,5.19-0.98,7.18,1.52c2.39,3,5.84,4.11,9.1,5.33c3.5,1.32,7.32,1.75,10.95,2.75
			c0.92,0.25,1.63,1.21,2.46,1.82c2.18,1.6,2.87,1.41,3.9-1.1c0.39-0.95,0.68-1.95,1.07-2.9c0.77-1.87,4.12-3.81,6.41-3.22
			c3.38,0.86,6.96,0.9,9.95,3.51c1.73,1.52,1.23,2.85,0.78,4.04c-1.54,4.07-3.44,8-5.15,12c-1.4,3.29-2.75,6.6-4.09,9.91
			c-0.48,1.18-0.85,2.41-1.32,3.61c-2.16,5.6-4.41,11.16-6.47,16.79c-0.93,2.53-1.5,5.2-2.3,8.04c4.09,0.29,6.83-1.87,9.59-3.85
			c1.88-1.35,3.65-2.84,5.44-4.31c1.65-1.35,2.86-0.24,3.92,0.79c1.02,1,0.6,1.64-0.55,2.64c-1.77,1.53-2.82,3.87-4.5,5.52
			c-1.74,1.71-3.78,3.15-5.85,4.45c-2.9,1.82-5.83,3.69-8.98,5.01c-4.37,1.84-9.02,3.38-13.81,2.47c-1.89-0.36-3.5-2.22-5.61-3.64
			c-0.92,0.5-2.45,1.2-3.86,2.1c-3.88,2.5-7.97,2.59-11.69-0.11c-4.78-3.48-10.11-5.52-15.87-6.54c-0.73-0.13-1.5-0.15-2.24-0.06
			c-0.85,0.1-2.18,0.79-2.43,0.49c-0.85-1.02-1.84-2.35-1.85-3.57c-0.06-4.92-1.5-9.49-3.18-13.99c-0.57-1.52-1.63-2.9-2.66-4.19
			c-1.45-1.83-3.16-3.45-4.61-5.28c-1.35-1.72-0.19-3.26,0.75-4.68c1.66-2.51,3.27-5.07,5.15-7.41c3.16-3.92,3.64-8.65,4.35-13.32
			C132.35,57.2,132.01,56.24,131.88,55.3z M158.12,111.84c0.72-4.39-0.17-5.8-2.75-7.05c-2.22-1.08-4.65-1.76-7.03-2.47
			c-3.4-1.02-5.57-0.09-7.07,2.64c2.8,0.97,5.68,1.85,8.45,2.98C152.52,109.08,155.21,110.48,158.12,111.84z M130.38,84.13
			c2.59,5.72,6.23,10.78,6.71,17.81c1.44-2.44,4.09-3.39,3.58-6.1c-0.43-2.28-0.97-4.66-2.06-6.68
			C135.72,83.77,136.86,83.57,130.38,84.13z M141.29,57.28c1.72,3.87,3.86,4.98,7.13,3.62c2.15-0.89,4.2-2,6.34-2.91
			c3.62-1.52,4.46-3.48,3.04-7.34C153.08,54.62,147.44,56.31,141.29,57.28z M130.87,78.38c4.65,0.55,4.93,0.5,7.02-3.52
			c1.02-1.95,1.61-4.12,2.45-6.17c1.21-2.94-0.1-5.55-2.69-6.32C135.39,67.73,133.15,73.01,130.87,78.38z M163.93,50.42
			c-0.26,2.89-0.98,5.55,1.92,7.06c2.65,1.38,5.29,2.85,8.09,3.8c3.17,1.08,5.93-1.16,5.61-4.03
			C173.94,56.18,168.53,54.75,163.93,50.42z M164.11,111.83c1.63-0.95,3.15-2.24,4.9-2.78c3.34-1.04,3.86-2.23,4.11-6.38
			C167.88,103.61,161.84,106.82,164.11,111.83z M149.98,65.92c0.9,2.82,3.13,4.47,5.23,3.8c3.15-1.01,3.85-2.84,2.7-6.87
			C155.27,63.87,152.63,64.9,149.98,65.92z M172.55,96.6c-2.53-1.79-3.93-5.52-7.54-2.54c-2.26,1.86-0.96,4.18-1.23,6.45
			C166.78,99.17,169.51,97.95,172.55,96.6z M172.06,66.08c-2.76-1.06-5.37-2.07-7.96-3.07c-1.06,3.74-0.55,5.41,2.1,6.62
			C168.19,70.55,170.18,69.34,172.06,66.08z M176.23,70.24c-2.9,1.31-4.52,3.71-3.73,5.62c1.15,2.81,3.2,3.46,6.59,2.21
			C178.13,75.46,177.18,72.85,176.23,70.24z M178.88,84.16c-4.61-0.48-5.77,0.16-6.47,3.32c-0.42,1.88,1.13,3.7,3.94,4.58
			C177.17,89.47,178,86.89,178.88,84.16z M185.01,62.16c-4.05,2.34-5.69,1.33-2.87,9.8C185.22,72.16,186.04,69.45,185.01,62.16z
			 M142.2,83.95c1.25,2.97,2.38,5.66,3.51,8.36c1.2-0.97,2.47-1.87,3.56-2.95c0.31-0.31,0.3-1.18,0.14-1.69
			c-0.25-0.77-0.65-1.56-1.2-2.14c-0.61-0.64-1.4-1.35-2.21-1.51C144.72,83.76,143.37,83.95,142.2,83.95z M158.03,99.95
			c0.89-4.26,0.39-5.88-3.77-7.09c-1.11-0.32-3.05,2.18-4.74,3.49C152.63,97.67,155.27,98.79,158.03,99.95z M142.43,78.24
			c3.76,0.9,6.47,0.11,6.98-3.21c0.23-1.5-2.15-3.41-3.36-5.16C144.68,73.03,143.54,75.67,142.43,78.24z"/>
		<path style="fill:#FFFFFF;" d="M257.2,96.57c-1.36,1.58-2.55,2.85-3.6,4.22c-3.94,5.1-8.94,8.84-14.35,12.29
			c-4.86,3.09-9.91,5.16-15.62,5.34c-4.97,0.15-9.39-4.35-9.4-9.25c-0.01-3.33,0.72-6.34,2.22-9.48c2.3-4.83,3.51-10.17,5.34-15.24
			c1.21-3.35,2.82-6.55,4.01-9.91c1.01-2.87,1.93-5.82,2.42-8.82c0.35-2.11-0.81-2.73-2.71-1.64c-2.02,1.16-3.96,2.47-5.83,3.86
			c-2.21,1.64-4.3,3.44-6.46,5.19c-2.28-1.35-2.66-3.07-0.95-5.11c1.8-2.14,3.66-4.22,5.5-6.31c3.94-4.48,9.17-6.73,14.57-8.94
			c3.15-1.29,6.27-1.9,9.56-2.34c5.32-0.72,9.25,6.81,7.48,11.15c-1.52,3.71-2.29,7.73-3.61,11.54c-1.11,3.21-2.58,6.3-3.77,9.48
			c-1.61,4.28-3.14,8.58-4.65,12.89c-0.91,2.59-1.89,5.18-2.49,7.85c-0.23,1.03,0.16,2.68,0.89,3.31c0.91,0.78,1.97-0.32,3.05-0.88
			c4.06-2.06,6.91-5.15,9.73-8.62c2.87-3.53,5.18-7.34,7.66-11.09c3.57-5.41,4.68-11.63,6.84-17.52c1.67-4.55,1.91-9.64,5.2-13.69
			c3.1-3.82,10.52-5.77,14.66-3.33c3.58,2.1,4.96,6.11,3.24,9.93c-2.39,5.32-4.88,10.6-7.38,15.87c-2.3,4.85-4.55,9.71-5.09,15.15
			c-0.27,2.78-0.73,5.55-0.83,8.33c-0.19,5.1,4.18,5.53,7.31,4.17c4.11-1.79,6.72-5.28,9.46-8.64c3.66-4.49,4.69-10.06,6.86-15.17
			c2.63-6.19,2.49-12.48,2.13-18.81c-0.15-2.75-0.29-5.24,1.21-7.59c2.94-4.59,9.24-5.62,13.33-2.96c1.84,1.2,3.2,4.15,3.53,6.49
			c1.2,8.42-0.59,16.53-4.96,23.73c-3.4,5.6-7.66,10.69-11.68,15.9c-3.93,5.09-8.91,9.11-14.34,12.41
			c-5.13,3.12-10.26,6.19-16.45,7.44c-4.59,0.93-8.27,0.63-11.77-2.38c-2.35-2.01-3.21-4.83-2.83-7.52
			c0.48-3.41,1.94-6.69,2.95-10.03C257.66,97.64,257.47,97.38,257.2,96.57z"/>
		<path style="fill:#FFFFFF;" d="M13.5,5.16c2.45-0.39,4.65-1.29,5.61,2.29c0.27,1,3.03,1.52,4.72,1.88
			c1.52,0.32,3.15,0.13,4.73,0.13c21.08,0,42.15-0.02,63.23,0.02c4.28,0.01,8.23-0.35,11.24-4.07c0.65-0.8,2.75-0.43,4.81-0.68
			c-0.67,2.19-1.1,3.79-1.64,5.35c-1.3,3.8-2.68,7.57-3.96,11.37c-1.28,3.83-2.36,7.74-3.73,11.54c-0.72,2-2.43,2.8-4.56,2.39
			c-2-0.38-1.84-1.89-1.89-3.45c-0.1-3.03-0.52-6.05-0.6-9.08c-0.08-3.23-2.82-3.84-4.85-4.8c-1.76-0.84-3.95-0.96-5.97-1.04
			c-3.74-0.15-7.51,0.13-11.24-0.11c-2.28-0.14-3.39,0.87-3.97,2.75c-1.12,3.65-2.07,7.35-3.18,11c-1.24,4.05-2.61,8.06-3.86,12.11
			c-0.93,3-1.73,6.04-2.66,9.04c-0.44,1.42-1.09,2.76-1.54,4.18c-1.62,5.15-3.23,10.31-4.78,15.49c-1.93,6.44-3.76,12.92-5.72,19.35
			c-0.96,3.13-2.12,6.19-3.21,9.28c-1.99,5.62,0.74,9.61,6.64,9.91c1.96,0.1,3.89,0.63,6.12,1.01c0,0.84,0.04,1.65-0.01,2.46
			c-0.12,1.98-0.89,3.11-3.18,3.02c-9.22-0.35-18.44-0.74-27.67-0.79c-6.3-0.03-12.61,0.53-18.91,0.73
			c-3.07,0.1-4.12-1.42-3.15-4.38c0.13-0.38,0.55-0.86,0.92-0.94c2.09-0.44,4.2-0.98,6.32-1.1c6.25-0.38,8.08-2.43,10.12-7.25
			c0.87-2.06,1.37-4.28,2.1-6.4c1.7-4.97,3.51-9.89,5.13-14.88c0.93-2.86,1.52-5.82,2.37-8.7c0.41-1.41,1.16-2.72,1.58-4.13
			c1.69-5.65,3.24-11.33,4.97-16.96c1.09-3.57,2.42-7.06,3.62-10.59c0.93-2.75,1.81-5.52,2.73-8.28c0.56-1.71,1.15-3.41,1.71-5.12
			c0.88-2.68,1.84-5.33,2.58-8.05c0.41-1.5-0.39-2.62-2-2.63c-5.25-0.05-10.57-0.52-15.72,0.2c-4.88,0.68-8.68,4.04-11.94,7.71
			c-1.7,1.92-3.22,4-4.81,6.01c-0.24,0.3-0.54,0.59-0.69,0.93c-1.13,2.61-3.57,3.76-5.99,2.52c-0.65-0.33-1.36-1.8-1.12-2.38
			c1.34-3.36,3-6.6,4.47-9.91c2.19-4.91,4.33-9.85,6.45-14.8C13.39,6.69,13.37,5.98,13.5,5.16z"/>
		<path style="fill:#FFFFFF;" d="M322.15,118.85c-2.24-0.65-5.01-1.22-7.58-2.27c-2.16-0.89-3.09-3.04-2.72-5.27
			c0.56-3.35,1.44-6.65,2.32-9.94c0.77-2.87,1.68-5.7,2.62-8.51c0.85-2.53,1.84-5.02,2.74-7.54c1.24-3.48,2.45-6.98,3.68-10.47
			c0.93-2.64,1.9-5.27,2.8-7.93c1.27-3.74,2.47-7.5,3.74-11.25c0.88-2.61,1.85-5.19,2.73-7.8c1.27-3.72,2.45-7.48,3.76-11.19
			c1.3-3.69,2.77-7.32,4.04-11.02c0.9-2.61,1.65-5.28,2.38-7.95c0.94-3.42-1.74-6.15-4.39-7.35c-1.12-0.5-2.6-1.68-2.67-2.63
			c-0.08-1.22,0.51-2.68,2.65-2.98c4.82-0.68,9.55-2,14.35-2.87c4.2-0.76,8.42-1.39,12.66-1.86c2.43-0.27,3.23,0.91,2.33,3.09
			c-0.98,2.39-2.25,4.67-3.13,7.1c-1.18,3.27-2.03,6.65-3.14,9.95c-1.21,3.62-2.57,7.18-3.84,10.78c-0.91,2.57-1.75,5.16-2.66,7.72
			c-1.44,4.03-2.96,8.03-4.35,12.07c-1.08,3.15-1.99,6.35-3.03,9.51c-1.26,3.84-2.59,7.67-3.88,11.51
			c-1.25,3.73-2.46,7.47-3.73,11.19c-0.89,2.62-1.91,5.19-2.78,7.82c-1.57,4.76-3.13,9.53-4.52,14.35
			c-0.21,0.74,0.41,2.41,0.89,2.51c0.96,0.2,2.35-0.07,3.08-0.71c4.29-3.72,8.53-7.5,12.58-11.47c1.26-1.23,2.45-2.31,3.92-1.2
			c1.42,1.07,1.1,2.61,0.02,4.12c-2.37,3.31-4.04,7.29-6.92,10.02c-4.8,4.56-10.12,8.7-17.27,9.19
			C326.81,117.73,324.81,118.33,322.15,118.85z"/>
		<path style="fill:#FFFFFF;" d="M81.69,62.43c-3.95,0.08-6.43,1.78-8.78,3.52c-2,1.49-3.62,3.47-5.57,5.04
			c-1.55,1.25-3.45,0.3-3-1.6c0.53-2.23,1.74-4.4,3.04-6.33c1.09-1.63,2.59-3.08,4.17-4.26c2.76-2.08,5.71-3.91,8.61-5.8
			c2.7-1.77,5.71-2.45,8.91-2.54c7.88-0.22,10.08,5.84,8.12,11.97c-0.4,1.24-0.62,2.54-1.06,3.77c-1.52,4.27-3.14,8.5-4.63,12.78
			c-0.3,0.86-0.17,1.87,0.26,2.94c2.35-3.93,4.58-7.94,7.08-11.77c2.51-3.85,5.08-7.71,8.04-11.22c1.96-2.33,4.68-4.01,6.99-6.05
			c2.11-1.86,4.56-2.38,7.29-2.43c3.68-0.06,5.99,3.19,6.63,6.21c0.12,0.56,0.02,1.17,0.1,1.74c0.31,2.18-0.38,3.62-2.22,5.14
			c-3.43,2.85-6.37,6.29-9.58,9.42c-0.45,0.44-1.3,0.47-1.97,0.69c-0.5-2.3-0.84-4.41-1.44-6.44c-0.27-0.92-0.9-2.03-1.68-2.41
			c-0.51-0.24-1.83,0.49-2.35,1.13c-2.19,2.7-4.44,5.41-6.26,8.36c-2.48,4.02-4.72,8.21-6.84,12.44c-2.24,4.45-4.29,9.01-6.32,13.56
			c-2.24,5.02-4.07,10.25-6.68,15.06c-0.84,1.55-3.52,2.75-5.46,2.9c-3.04,0.24-6.19-0.4-9.25-0.96c-1.72-0.31-3.03-3.06-2.43-4.74
			c1.25-3.48,2.73-6.88,3.94-10.38c1.22-3.49,2.18-7.07,3.34-10.59c1.22-3.7,2.56-7.36,3.8-11.06c1.29-3.83,2.58-7.66,3.74-11.53
			C80.84,67.02,81.15,64.94,81.69,62.43z"/>
	</g>
</g>
</svg>
